# xmcd
#
# Track frame offsets:
#	150
#	17594
#	30532
#	46548
#	64416
#	76385
#	96281
#	127572
#	142127
#	151559
#
# Disc length: 2208 seconds
#
# Revision: 1
# Processed by: cddbd v1.5.2PL0 Copyright (c) Steve Scherf et al.
# Submitted via: audiograbber 1.83.01
#
DISCID=6e089e0a
DTITLE=Andrew and Rhythm Hounds - When The WInd Moans
DYEAR=2016
DGENRE=Blues
TTITLE0=RIGHT HERE
TTITLE1=BY THE END OF THE NIGHT
TTITLE2=WHEN THE WIND MOANS
TTITLE3=BECAUSE OF YOU
TTITLE4=HIT AND RUN BLUES
TTITLE5=SPANISH DANCER
TTITLE6=GOOD ENOUGH
TTITLE7=LOVE RODEO
TTITLE8=WANT YA
TTITLE9=I REMEMBER
EXTD=
EXTT0=
EXTT1=
EXTT2=
EXTT3=
EXTT4=
EXTT5=
EXTT6=
EXTT7=
EXTT8=
EXTT9=
PLAYORDER=
